<svg
  xmlns="http://www.w3.org/2000/svg"
  viewBox="0 0 192 192"
  style="enable-background: new 0 0 192 192"
  xml:space="preserve"
>
  <style>
    .favicon {
      stroke: #151515;
    }
    @media (prefers-color-scheme: dark) {
      .favicon {
        stroke: #fff;
      }
    }
  </style>
  <path
    class="favicon"
    d="M88.4 12.5C90 8.3 94.8 6.2 99 7.8c2.1.8 3.8 2.5 4.6 4.6a17.5 17.5 0 0 0 27.6 7.4c5.8-4.8 14.5.2 13.2 7.6a17.44 17.44 0 0 0 20.1 20.1c7.4-1.2 12.4 7.4 7.6 13.2a17.46 17.46 0 0 0 7.5 27.6c4.2 1.6 6.3 6.4 4.6 10.6-.8 2.1-2.5 3.8-4.6 4.6a17.5 17.5 0 0 0-7.4 27.6c4.8 5.8-.2 14.5-7.6 13.2a17.44 17.44 0 0 0-20.1 20.1c1.2 7.4-7.4 12.4-13.2 7.6a17.46 17.46 0 0 0-27.6 7.5 8.11 8.11 0 0 1-10.6 4.6c-2.1-.8-3.8-2.5-4.6-4.6a17.5 17.5 0 0 0-27.6-7.4 8.22 8.22 0 0 1-11.5-1.1 8.03 8.03 0 0 1-1.7-6.5 17.44 17.44 0 0 0-20.1-20.1c-7.4 1.2-12.4-7.4-7.6-13.2a17.46 17.46 0 0 0-7.5-27.6A8.24 8.24 0 0 1 7.8 93c.8-2.1 2.5-3.8 4.6-4.6a17.5 17.5 0 0 0 7.4-27.6 8.22 8.22 0 0 1 1.1-11.5c1.8-1.5 4.2-2.1 6.5-1.7a17.49 17.49 0 0 0 20.2-20.1 8.23 8.23 0 0 1 13.3-7.7 17.46 17.46 0 0 0 27.5-7.3z"
    style="fill: none; stroke: currentColor; stroke-width: 11.8526"
  />
</svg>
