<?xml version="1.0" standalone="no"?>
<!DOCTYPE svg PUBLIC "-//W3C//DTD SVG 20010904//EN"
 "http://www.w3.org/TR/2001/REC-SVG-20010904/DTD/svg10.dtd">
<svg version="1.0" xmlns="http://www.w3.org/2000/svg"
 width="700.000000pt" height="700.000000pt" viewBox="0 0 700.000000 700.000000"
 preserveAspectRatio="xMidYMid meet">
<metadata>
Created by potrace 1.14, written by Peter Selinger 2001-2017
</metadata>
<g transform="translate(0.000000,700.000000) scale(0.100000,-0.100000)"
fill="#000000" stroke="none">
<path d="M3371 6934 c-152 -41 -284 -157 -346 -304 -71 -168 -204 -268 -367
-278 -123 -7 -203 20 -323 108 -117 86 -289 121 -425 85 -183 -47 -322 -183
-376 -366 -16 -54 -19 -117 -11 -253 8 -136 -31 -241 -121 -332 -47 -46 -146
-101 -203 -112 -38 -7 -138 -7 -218 0 -64 5 -163 -8 -211 -29 -86 -37 -108
-52 -175 -118 -113 -111 -162 -239 -152 -395 6 -101 32 -174 90 -260 95 -141
116 -194 118 -292 2 -75 -9 -124 -42 -195 -44 -93 -108 -151 -233 -213 -59
-29 -128 -72 -155 -96 -177 -159 -221 -415 -108 -628 52 -98 128 -165 261
-232 137 -68 199 -125 249 -231 29 -63 32 -76 32 -168 -1 -117 -19 -169 -95
-275 -59 -80 -73 -109 -95 -185 -65 -224 45 -480 254 -588 87 -45 158 -61 256
-57 233 9 287 -2 386 -78 75 -56 120 -119 149 -206 19 -57 20 -79 16 -207 -6
-166 5 -227 59 -324 63 -113 160 -193 285 -236 50 -17 88 -22 165 -22 117 0
193 23 288 88 138 94 188 115 287 120 73 3 136 -10 205 -44 92 -45 149 -109
206 -228 83 -171 210 -283 364 -320 60 -14 187 -11 247 6 160 44 267 138 347
304 76 159 149 228 284 269 129 39 268 11 387 -79 133 -100 265 -135 415 -109
198 33 363 189 409 387 13 55 14 161 2 264 -5 49 21 153 54 211 37 66 105 133
163 162 92 47 119 52 281 47 167 -4 214 3 307 50 99 49 187 139 232 236 27 58
49 157 49 218 0 51 -2 72 -16 136 -9 44 -50 122 -95 184 -76 103 -102 174
-102 275 0 114 39 211 120 299 33 35 74 62 156 102 75 36 129 71 164 104 211
201 216 534 12 736 -60 60 -103 87 -190 123 -110 45 -204 143 -246 257 -25 67
-25 192 -1 262 9 29 46 95 81 147 82 124 106 188 111 297 10 248 -146 458
-389 524 -47 12 -132 13 -282 2 -129 -10 -301 97 -364 226 -43 89 -51 128 -44
231 3 50 6 107 7 126 2 58 -22 156 -55 222 -38 75 -142 181 -215 220 -173 92
-385 75 -549 -44 -121 -88 -162 -103 -290 -103 -105 0 -114 2 -178 33 -99 49
-156 111 -218 240 -104 212 -259 317 -474 320 -44 1 -104 -5 -134 -14z m170
-425 c11 -5 35 -43 54 -84 118 -260 352 -446 625 -495 235 -43 484 17 676 162
56 42 90 47 125 19 23 -19 24 -23 25 -188 0 -92 4 -179 7 -192 40 -151 110
-303 172 -367 5 -6 26 -29 46 -51 20 -21 55 -55 80 -74 24 -19 49 -40 57 -46
31 -29 203 -105 282 -124 91 -22 233 -30 313 -18 62 10 93 -2 114 -45 16 -35
16 -36 -15 -83 -85 -130 -116 -189 -142 -265 -36 -107 -41 -131 -45 -258 -3
-102 18 -250 44 -305 5 -11 23 -50 39 -87 76 -169 225 -313 417 -405 81 -38
105 -62 105 -103 -1 -38 -20 -56 -94 -90 -399 -179 -603 -633 -469 -1045 30
-93 75 -178 140 -264 37 -50 41 -85 14 -121 -16 -20 -28 -24 -63 -23 -244 6
-255 5 -342 -16 -208 -50 -365 -153 -494 -323 -126 -167 -189 -407 -161 -613
9 -66 -1 -96 -39 -116 -36 -20 -56 -14 -141 45 -91 63 -166 99 -269 129 -65
18 -101 22 -227 22 -128 -1 -161 -4 -225 -24 -256 -79 -439 -239 -553 -484
-38 -81 -62 -101 -108 -90 -37 9 -48 21 -83 98 -120 260 -373 454 -641 493
-65 9 -205 9 -277 -1 -116 -16 -279 -86 -368 -157 -53 -43 -81 -52 -120 -39
-37 13 -53 54 -44 110 16 105 5 251 -27 356 -92 298 -303 500 -615 589 -44 13
-101 18 -225 18 -179 1 -189 4 -208 56 -9 27 -5 37 43 107 123 180 165 314
164 513 -1 191 -52 348 -161 496 -99 135 -203 215 -379 293 -39 18 -49 28 -59
60 -16 55 -2 75 88 116 237 112 399 297 472 540 77 260 25 539 -142 762 -34
45 -38 58 -33 87 12 61 25 66 181 61 157 -5 253 10 378 60 233 94 432 319 497
565 7 25 14 54 17 65 3 11 7 92 8 180 3 199 0 182 35 200 44 23 61 19 121 -26
70 -52 217 -125 294 -144 296 -75 597 2 808 209 98 95 164 190 202 289 25 66
77 93 126 66z"/>
</g>
</svg>
