<svg width="38" height="38" fill="none" xmlns="http://www.w3.org/2000/svg"><path d="M17.77 5.5a1.32 1.32 0 0 1 2.46 0 2.82 2.82 0 0 0 4.45 1.2c.94-.78 2.34.03 2.14 1.23a2.82 2.82 0 0 0 3.25 3.25c1.2-.2 2.01 1.2 1.23 2.14a2.82 2.82 0 0 0 1.2 4.45 1.32 1.32 0 0 1 0 2.46 2.82 2.82 0 0 0-1.2 4.45c.78.94-.03 2.34-1.23 2.14a2.82 2.82 0 0 0-3.25 3.25c.2 1.2-1.2 2.01-2.14 1.23a2.82 2.82 0 0 0-4.45 1.2 1.32 1.32 0 0 1-2.46 0 2.82 2.82 0 0 0-4.45-1.2 1.32 1.32 0 0 1-2.14-1.23 2.82 2.82 0 0 0-3.25-3.25c-1.2.2-2.01-1.2-1.23-2.14a2.82 2.82 0 0 0-1.2-4.45 1.32 1.32 0 0 1 0-2.46 2.82 2.82 0 0 0 1.2-4.45 1.32 1.32 0 0 1 1.23-2.14 2.82 2.82 0 0 0 3.25-3.25 1.32 1.32 0 0 1 2.14-1.23 2.82 2.82 0 0 0 4.45-1.2Z" stroke="#151515" stroke-width="1.5"/></svg>